<svg xmlns="http://www.w3.org/2000/svg" xmlns:xlink="http://www.w3.org/1999/xlink" viewBox="0 0 2105 1300" width="2105" height="1300" preserveAspectRatio="xMidYMid meet"><defs><clipPath id="__lottie_element_2"><rect width="2105" height="1300" x="0" y="0"></rect></clipPath><clipPath id="__lottie_element_4"><path d="M0,0 L1920,0 L1920,1920 L0,1920z"></path></clipPath><clipPath id="__lottie_element_8"><path d="M0,0 L1920,0 L1920,1920 L0,1920z"></path></clipPath><clipPath id="__lottie_element_12"><path d="M0,0 L1920,0 L1920,1920 L0,1920z"></path></clipPath><g id="__lottie_element_15"><g transform="matrix(1,0,0,1,960,960)" opacity="1" style="display: block;"><g opacity="1" transform="matrix(1,0,0,1,0,0)"><path fill="rgb(219,154,96)" fill-opacity="1" d=" M41.757999420166016,-413.2080078125 C41.757999420166016,-413.2080078125 -63.722999572753906,-522.6420288085938 -229.76100158691406,-449.0570068359375 C-229.76100158691406,-449.0570068359375 -329.760009765625,-500 -424.1000061035156,-413.2080078125 C-515.0499877929688,-329.5350036621094 -679.6510009765625,155.718994140625 -366.76800537109375,388.2879943847656 C-334.64801025390625,412.1629943847656 -296.10198974609375,426.19000244140625 -256.0870056152344,426.9309997558594 C-250.51499938964844,427.03399658203125 -244.85499572753906,426.8869934082031 -239.19500732421875,426.4150085449219 C-239.19500732421875,426.4150085449219 -167.49600219726562,501.8869934082031 30.617000579833984,481.1319885253906 C30.617000579833984,481.1319885253906 213.63600158691406,522.6420288085938 345.71099853515625,426.4150085449219 C345.71099853515625,426.4150085449219 547.5980224609375,452.8299865722656 617.4089965820312,194.33999633789062 C679.6510009765625,-36.125 612.906982421875,-347.5820007324219 457.29400634765625,-455.20001220703125 C421.552001953125,-479.9179992675781 377.89300537109375,-490.9289855957031 334.8689880371094,-484.8179931640625 C311.63299560546875,-481.5169982910156 288.2980041503906,-473.31500244140625 277.7860107421875,-454.7170104980469 C277.7860107421875,-454.7170104980469 130.25799560546875,-513.2080078125 41.757999420166016,-413.2080078125z"></path></g></g></g><clipPath id="__lottie_element_19"><path d="M0,0 L1920,0 L1920,1920 L0,1920z"></path></clipPath><clipPath id="__lottie_element_23"><path d="M0,0 L1920,0 L1920,1920 L0,1920z"></path></clipPath><mask id="__lottie_element_15_1" mask-type="alpha"><use xlink:href="#__lottie_element_15"></use></mask><g id="__lottie_element_35"><g transform="matrix(1,0,0,1,960,960)" opacity="1" style="display: block;"><g opacity="1" transform="matrix(1,0,0,1,0,0)"><path fill="rgb(189,117,71)" fill-opacity="1" d=" M41.757999420166016,-413.2080078125 C41.757999420166016,-413.2080078125 -63.722999572753906,-522.6420288085938 -229.76100158691406,-449.0570068359375 C-229.76100158691406,-449.0570068359375 -329.760009765625,-500 -424.1000061035156,-413.2080078125 C-515.0499877929688,-329.5350036621094 -679.6510009765625,155.718994140625 -366.76800537109375,388.2879943847656 C-334.64801025390625,412.1629943847656 -296.10198974609375,426.19000244140625 -256.0870056152344,426.9309997558594 C-250.51499938964844,427.03399658203125 -244.85499572753906,426.8869934082031 -239.19500732421875,426.4150085449219 C-239.19500732421875,426.4150085449219 -167.49600219726562,501.8869934082031 30.617000579833984,481.1319885253906 C30.617000579833984,481.1319885253906 213.63600158691406,522.6420288085938 345.71099853515625,426.4150085449219 C345.71099853515625,426.4150085449219 547.5980224609375,452.8299865722656 617.4089965820312,194.33999633789062 C679.6510009765625,-36.125 612.906982421875,-347.5820007324219 457.29400634765625,-455.20001220703125 C421.552001953125,-479.9179992675781 377.89300537109375,-490.9289855957031 334.8689880371094,-484.8179931640625 C311.63299560546875,-481.5169982910156 288.2980041503906,-473.31500244140625 277.7860107421875,-454.7170104980469 C277.7860107421875,-454.7170104980469 130.25799560546875,-513.2080078125 41.757999420166016,-413.2080078125z"></path></g></g></g><mask id="__lottie_element_35_1" mask-type="alpha"><use xlink:href="#__lottie_element_35"></use></mask><clipPath id="__lottie_element_51"><path d="M0,0 L1920,0 L1920,1920 L0,1920z"></path></clipPath><clipPath id="__lottie_element_55"><path d="M0,0 L1920,0 L1920,1920 L0,1920z"></path></clipPath><clipPath id="__lottie_element_59"><path d="M0,0 L1920,0 L1920,1920 L0,1920z"></path></clipPath><g id="__lottie_element_62"><g transform="matrix(1,0,0,1,960,960)" opacity="1" style="display: block;"><g opacity="1" transform="matrix(1,0,0,1,0,0)"><path fill="rgb(219,154,96)" fill-opacity="1" d=" M41.757999420166016,-413.2080078125 C41.757999420166016,-413.2080078125 -63.722999572753906,-522.6420288085938 -229.76100158691406,-449.0570068359375 C-229.76100158691406,-449.0570068359375 -329.760009765625,-500 -424.1000061035156,-413.2080078125 C-515.0499877929688,-329.5350036621094 -679.6510009765625,155.718994140625 -366.76800537109375,388.2879943847656 C-334.64801025390625,412.1629943847656 -296.10198974609375,426.19000244140625 -256.0870056152344,426.9309997558594 C-250.51499938964844,427.03399658203125 -244.85499572753906,426.8869934082031 -239.19500732421875,426.4150085449219 C-239.19500732421875,426.4150085449219 -167.49600219726562,501.8869934082031 30.617000579833984,481.1319885253906 C30.617000579833984,481.1319885253906 213.63600158691406,522.6420288085938 345.71099853515625,426.4150085449219 C345.71099853515625,426.4150085449219 547.5980224609375,452.8299865722656 617.4089965820312,194.33999633789062 C679.6510009765625,-36.125 612.906982421875,-347.5820007324219 457.29400634765625,-455.20001220703125 C421.552001953125,-479.9179992675781 377.89300537109375,-490.9289855957031 334.8689880371094,-484.8179931640625 C311.63299560546875,-481.5169982910156 288.2980041503906,-473.31500244140625 277.7860107421875,-454.7170104980469 C277.7860107421875,-454.7170104980469 130.25799560546875,-513.2080078125 41.757999420166016,-413.2080078125z"></path></g></g></g><clipPath id="__lottie_element_66"><path d="M0,0 L1920,0 L1920,1920 L0,1920z"></path></clipPath><clipPath id="__lottie_element_70"><path d="M0,0 L1920,0 L1920,1920 L0,1920z"></path></clipPath><mask id="__lottie_element_62_1" mask-type="alpha"><use xlink:href="#__lottie_element_62"></use></mask><g id="__lottie_element_82"><g transform="matrix(1,0,0,1,960,960)" opacity="1" style="display: block;"><g opacity="1" transform="matrix(1,0,0,1,0,0)"><path fill="rgb(189,117,71)" fill-opacity="1" d=" M41.757999420166016,-413.2080078125 C41.757999420166016,-413.2080078125 -63.722999572753906,-522.6420288085938 -229.76100158691406,-449.0570068359375 C-229.76100158691406,-449.0570068359375 -329.760009765625,-500 -424.1000061035156,-413.2080078125 C-515.0499877929688,-329.5350036621094 -679.6510009765625,155.718994140625 -366.76800537109375,388.2879943847656 C-334.64801025390625,412.1629943847656 -296.10198974609375,426.19000244140625 -256.0870056152344,426.9309997558594 C-250.51499938964844,427.03399658203125 -244.85499572753906,426.8869934082031 -239.19500732421875,426.4150085449219 C-239.19500732421875,426.4150085449219 -167.49600219726562,501.8869934082031 30.617000579833984,481.1319885253906 C30.617000579833984,481.1319885253906 213.63600158691406,522.6420288085938 345.71099853515625,426.4150085449219 C345.71099853515625,426.4150085449219 547.5980224609375,452.8299865722656 617.4089965820312,194.33999633789062 C679.6510009765625,-36.125 612.906982421875,-347.5820007324219 457.29400634765625,-455.20001220703125 C421.552001953125,-479.9179992675781 377.89300537109375,-490.9289855957031 334.8689880371094,-484.8179931640625 C311.63299560546875,-481.5169982910156 288.2980041503906,-473.31500244140625 277.7860107421875,-454.7170104980469 C277.7860107421875,-454.7170104980469 130.25799560546875,-513.2080078125 41.757999420166016,-413.2080078125z"></path></g></g></g><mask id="__lottie_element_82_1" mask-type="alpha"><use xlink:href="#__lottie_element_82"></use></mask><clipPath id="__lottie_element_98"><path d="M0,0 L1920,0 L1920,1920 L0,1920z"></path></clipPath><clipPath id="__lottie_element_102"><path d="M0,0 L1920,0 L1920,1920 L0,1920z"></path></clipPath><clipPath id="__lottie_element_106"><path d="M0,0 L1920,0 L1920,1920 L0,1920z"></path></clipPath><g id="__lottie_element_109"><g transform="matrix(1,0,0,1,960,960)" opacity="1" style="display: block;"><g opacity="1" transform="matrix(1,0,0,1,0,0)"><path fill="rgb(219,154,96)" fill-opacity="1" d=" M41.757999420166016,-413.2080078125 C41.757999420166016,-413.2080078125 -63.722999572753906,-522.6420288085938 -229.76100158691406,-449.0570068359375 C-229.76100158691406,-449.0570068359375 -329.760009765625,-500 -424.1000061035156,-413.2080078125 C-515.0499877929688,-329.5350036621094 -679.6510009765625,155.718994140625 -366.76800537109375,388.2879943847656 C-334.64801025390625,412.1629943847656 -296.10198974609375,426.19000244140625 -256.0870056152344,426.9309997558594 C-250.51499938964844,427.03399658203125 -244.85499572753906,426.8869934082031 -239.19500732421875,426.4150085449219 C-239.19500732421875,426.4150085449219 -167.49600219726562,501.8869934082031 30.617000579833984,481.1319885253906 C30.617000579833984,481.1319885253906 213.63600158691406,522.6420288085938 345.71099853515625,426.4150085449219 C345.71099853515625,426.4150085449219 547.5980224609375,452.8299865722656 617.4089965820312,194.33999633789062 C679.6510009765625,-36.125 612.906982421875,-347.5820007324219 457.29400634765625,-455.20001220703125 C421.552001953125,-479.9179992675781 377.89300537109375,-490.9289855957031 334.8689880371094,-484.8179931640625 C311.63299560546875,-481.5169982910156 288.2980041503906,-473.31500244140625 277.7860107421875,-454.7170104980469 C277.7860107421875,-454.7170104980469 130.25799560546875,-513.2080078125 41.757999420166016,-413.2080078125z"></path></g></g></g><clipPath id="__lottie_element_113"><path d="M0,0 L1920,0 L1920,1920 L0,1920z"></path></clipPath><clipPath id="__lottie_element_117"><path d="M0,0 L1920,0 L1920,1920 L0,1920z"></path></clipPath><mask id="__lottie_element_109_1" mask-type="alpha"><use xlink:href="#__lottie_element_109"></use></mask><g id="__lottie_element_129"><g transform="matrix(1,0,0,1,960,960)" opacity="1" style="display: block;"><g opacity="1" transform="matrix(1,0,0,1,0,0)"><path fill="rgb(189,117,71)" fill-opacity="1" d=" M41.757999420166016,-413.2080078125 C41.757999420166016,-413.2080078125 -63.722999572753906,-522.6420288085938 -229.76100158691406,-449.0570068359375 C-229.76100158691406,-449.0570068359375 -329.760009765625,-500 -424.1000061035156,-413.2080078125 C-515.0499877929688,-329.5350036621094 -679.6510009765625,155.718994140625 -366.76800537109375,388.2879943847656 C-334.64801025390625,412.1629943847656 -296.10198974609375,426.19000244140625 -256.0870056152344,426.9309997558594 C-250.51499938964844,427.03399658203125 -244.85499572753906,426.8869934082031 -239.19500732421875,426.4150085449219 C-239.19500732421875,426.4150085449219 -167.49600219726562,501.8869934082031 30.617000579833984,481.1319885253906 C30.617000579833984,481.1319885253906 213.63600158691406,522.6420288085938 345.71099853515625,426.4150085449219 C345.71099853515625,426.4150085449219 547.5980224609375,452.8299865722656 617.4089965820312,194.33999633789062 C679.6510009765625,-36.125 612.906982421875,-347.5820007324219 457.29400634765625,-455.20001220703125 C421.552001953125,-479.9179992675781 377.89300537109375,-490.9289855957031 334.8689880371094,-484.8179931640625 C311.63299560546875,-481.5169982910156 288.2980041503906,-473.31500244140625 277.7860107421875,-454.7170104980469 C277.7860107421875,-454.7170104980469 130.25799560546875,-513.2080078125 41.757999420166016,-413.2080078125z"></path></g></g></g><mask id="__lottie_element_129_1" mask-type="alpha"><use xlink:href="#__lottie_element_129"></use></mask></defs><g clip-path="url(#__lottie_element_2)"><g clip-path="url(#__lottie_element_98)" transform="matrix(0.4000000059604645,0,0,0.4000000059604645,-48.800018310546875,526.8616943359375)" opacity="1" style="display: block;"><g clip-path="url(#__lottie_element_102)" transform="matrix(1,0,0,1,0,0)" opacity="1" style="display: block;"><g clip-path="url(#__lottie_element_106)" transform="matrix(1,0,0,1,0,0)" opacity="1" style="display: block;"><g transform="matrix(1,0,0,1,965.9999389648438,1006)" opacity="1" style="display: block;"><g opacity="1" transform="matrix(1,0,0,1,0,0)"><path fill="rgb(168,94,60)" fill-opacity="1" d=" M34,-516 C-220,-636 -380,-416 -380,-416 C-380,-416 -270,-366 -268,-354 C-266,-342 378,-306 378,-306 C378,-306 552.0599975585938,-269.2510070800781 404,-450 C250,-638 35.80799865722656,-515.14599609375 34,-516z"></path></g></g><g transform="matrix(0.9935758113861084,-0.11316853016614914,0.11316853016614914,0.9935758113861084,1005.2265014648438,961.9632568359375)" opacity="1" style="display: block;"><g opacity="1" transform="matrix(1,0,0,1,0,0)"><path fill="rgb(165,150,104)" fill-opacity="1" d=" M278,-686 C56,-612 30,-386 30,-386 C30,-386 62,-386 64,-390 C171.46499633789062,-604.9320068359375 328,-570 328,-570 C328,-570 286.04998779296875,-688.6829833984375 278,-686z"></path></g></g><g transform="matrix(1,0,0,1,960,960)" opacity="1" style="display: block;"><g opacity="1" transform="matrix(1,0,0,1,0,0)"><path fill="rgb(219,154,96)" fill-opacity="1" d=" M41.757999420166016,-413.2080078125 C41.757999420166016,-413.2080078125 -63.722999572753906,-522.6420288085938 -229.76100158691406,-449.0570068359375 C-229.76100158691406,-449.0570068359375 -329.760009765625,-500 -424.1000061035156,-413.2080078125 C-515.0499877929688,-329.5350036621094 -679.6510009765625,155.718994140625 -366.76800537109375,388.2879943847656 C-334.64801025390625,412.1629943847656 -296.10198974609375,426.19000244140625 -256.0870056152344,426.9309997558594 C-250.51499938964844,427.03399658203125 -244.85499572753906,426.8869934082031 -239.19500732421875,426.4150085449219 C-239.19500732421875,426.4150085449219 -167.49600219726562,501.8869934082031 30.617000579833984,481.1319885253906 C30.617000579833984,481.1319885253906 213.63600158691406,522.6420288085938 345.71099853515625,426.4150085449219 C345.71099853515625,426.4150085449219 547.5980224609375,452.8299865722656 617.4089965820312,194.33999633789062 C679.6510009765625,-36.125 612.906982421875,-347.5820007324219 457.29400634765625,-455.20001220703125 C421.552001953125,-479.9179992675781 377.89300537109375,-490.9289855957031 334.8689880371094,-484.8179931640625 C311.63299560546875,-481.5169982910156 288.2980041503906,-473.31500244140625 277.7860107421875,-454.7170104980469 C277.7860107421875,-454.7170104980469 130.25799560546875,-513.2080078125 41.757999420166016,-413.2080078125z"></path></g></g><g mask="url(#__lottie_element_129_1)" style="display: block;"><g transform="matrix(1,0,0,1,1470,960)" opacity="1"><g opacity="1" transform="matrix(0.994700014591217,0,0,0.9961400032043457,0,0)"><path stroke-linecap="butt" stroke-linejoin="miter" fill-opacity="0" stroke-miterlimit="4" stroke="rgb(152,83,54)" stroke-opacity="1" stroke-width="8" d=" M-1031.469970703125,-558.155029296875 C-1361.218994140625,337.302001953125 -916.8629760742188,582.2470092773438 -916.8629760742188,582.2470092773438 C-916.8629760742188,582.2470092773438 -309.531005859375,1052.074951171875 84.447998046875,475.8380126953125 C569.0180053710938,-232.8990020751953 -209.10899353027344,-696.6900024414062 -209.10899353027344,-696.6900024414062 C-209.10899353027344,-696.6900024414062 -1073.6939697265625,-618.3880004882812 -1073.6939697265625,-618.3880004882812 C-1073.6939697265625,-618.3880004882812 -418.2179870605469,-1066.116943359375 -709.7639770507812,-544.1010131835938 C-1001.3109741210938,-22.086000442504883 -733.8920288085938,489.8909912109375 -733.8920288085938,489.8909912109375 C-733.8920288085938,489.8909912109375 -542.8800048828125,598.3099975585938 -490.60198974609375,552.1320190429688 C-438.32501220703125,505.9530029296875 -476.5270080566406,-564.177978515625 -476.5270080566406,-564.177978515625 C-476.5270080566406,-564.177978515625 -258.0530090332031,-511.9840087890625 -258.0530090332031,-511.9840087890625 C-258.0530090332031,-511.9840087890625 114.60800170898438,184.71299743652344 -260.10699462890625,562.0239868164062"></path></g></g></g><g mask="url(#__lottie_element_109_1)" style="display: block;"><g clip-path="url(#__lottie_element_113)" transform="matrix(1,0,0,1,0,0)" opacity="1"><g transform="matrix(1.0845099687576294,0,0,1.2162200212478638,973.5638427734375,943.56787109375)" opacity="1" style="display: block;"><g opacity="1" transform="matrix(1,0,0,1,0,0)"><path fill="rgb(67,43,59)" fill-opacity="1" d=" M-160,-100 C-135,-100 -115,-80 -115,-55 C-115,-30 -135,-10 -160,-10 C-185,-10 -205,-30 -205,-55 C-205,-80 -185,-100 -160,-100z"></path></g></g><g transform="matrix(1.0845099687576294,0,0,1.2162200212478638,1391.5638427734375,931.56787109375)" opacity="1" style="display: block;"><g opacity="1" transform="matrix(1,0,0,1,0,0)"><path fill="rgb(67,43,59)" fill-opacity="1" d=" M-160,-100 C-135,-100 -115,-80 -115,-55 C-115,-30 -135,-10 -160,-10 C-185,-10 -205,-30 -205,-55 C-205,-80 -185,-100 -160,-100z"></path></g></g><g clip-path="url(#__lottie_element_117)" transform="matrix(1,0,0,1,0,6)" opacity="1" style="display: block;"><g transform="matrix(0.9995706677436829,0.029299885034561157,-0.029299885034561157,0.9995706677436829,949.9943237304688,925.919189453125)" opacity="1" style="display: block;"><g opacity="1" transform="matrix(1,0,0,1,0,0)"><path fill="rgb(67,43,59)" fill-opacity="1" d=" M-175,100 C-70,240 220,240 325,100 C325,100 200,395 75,235 C-50,395 -175,100 -175,100z"></path></g></g></g></g></g></g></g></g><g clip-path="url(#__lottie_element_51)" transform="matrix(0.4000000059604645,0,0,0.4000000059604645,1431.199951171875,526.8616943359375)" opacity="1" style="display: block;"><g clip-path="url(#__lottie_element_55)" transform="matrix(1,0,0,1,0,0)" opacity="1" style="display: block;"><g clip-path="url(#__lottie_element_59)" transform="matrix(1,0,0,1,0,0)" opacity="1" style="display: block;"><g transform="matrix(1,0,0,1,965.9999389648438,1006)" opacity="1" style="display: block;"><g opacity="1" transform="matrix(1,0,0,1,0,0)"><path fill="rgb(168,94,60)" fill-opacity="1" d=" M34,-516 C-220,-636 -380,-416 -380,-416 C-380,-416 -270,-366 -268,-354 C-266,-342 378,-306 378,-306 C378,-306 552.0599975585938,-269.2510070800781 404,-450 C250,-638 35.80799865722656,-515.14599609375 34,-516z"></path></g></g><g transform="matrix(0.9935758113861084,-0.11316853016614914,0.11316853016614914,0.9935758113861084,1005.2265014648438,961.9632568359375)" opacity="1" style="display: block;"><g opacity="1" transform="matrix(1,0,0,1,0,0)"><path fill="rgb(165,150,104)" fill-opacity="1" d=" M278,-686 C56,-612 30,-386 30,-386 C30,-386 62,-386 64,-390 C171.46499633789062,-604.9320068359375 328,-570 328,-570 C328,-570 286.04998779296875,-688.6829833984375 278,-686z"></path></g></g><g transform="matrix(1,0,0,1,960,960)" opacity="1" style="display: block;"><g opacity="1" transform="matrix(1,0,0,1,0,0)"><path fill="rgb(219,154,96)" fill-opacity="1" d=" M41.757999420166016,-413.2080078125 C41.757999420166016,-413.2080078125 -63.722999572753906,-522.6420288085938 -229.76100158691406,-449.0570068359375 C-229.76100158691406,-449.0570068359375 -329.760009765625,-500 -424.1000061035156,-413.2080078125 C-515.0499877929688,-329.5350036621094 -679.6510009765625,155.718994140625 -366.76800537109375,388.2879943847656 C-334.64801025390625,412.1629943847656 -296.10198974609375,426.19000244140625 -256.0870056152344,426.9309997558594 C-250.51499938964844,427.03399658203125 -244.85499572753906,426.8869934082031 -239.19500732421875,426.4150085449219 C-239.19500732421875,426.4150085449219 -167.49600219726562,501.8869934082031 30.617000579833984,481.1319885253906 C30.617000579833984,481.1319885253906 213.63600158691406,522.6420288085938 345.71099853515625,426.4150085449219 C345.71099853515625,426.4150085449219 547.5980224609375,452.8299865722656 617.4089965820312,194.33999633789062 C679.6510009765625,-36.125 612.906982421875,-347.5820007324219 457.29400634765625,-455.20001220703125 C421.552001953125,-479.9179992675781 377.89300537109375,-490.9289855957031 334.8689880371094,-484.8179931640625 C311.63299560546875,-481.5169982910156 288.2980041503906,-473.31500244140625 277.7860107421875,-454.7170104980469 C277.7860107421875,-454.7170104980469 130.25799560546875,-513.2080078125 41.757999420166016,-413.2080078125z"></path></g></g><g mask="url(#__lottie_element_82_1)" style="display: block;"><g transform="matrix(1,0,0,1,1470,960)" opacity="1"><g opacity="1" transform="matrix(0.994700014591217,0,0,0.9961400032043457,0,0)"><path stroke-linecap="butt" stroke-linejoin="miter" fill-opacity="0" stroke-miterlimit="4" stroke="rgb(152,83,54)" stroke-opacity="1" stroke-width="8" d=" M-1031.469970703125,-558.155029296875 C-1361.218994140625,337.302001953125 -916.8629760742188,582.2470092773438 -916.8629760742188,582.2470092773438 C-916.8629760742188,582.2470092773438 -309.531005859375,1052.074951171875 84.447998046875,475.8380126953125 C569.0180053710938,-232.8990020751953 -209.10899353027344,-696.6900024414062 -209.10899353027344,-696.6900024414062 C-209.10899353027344,-696.6900024414062 -1073.6939697265625,-618.3880004882812 -1073.6939697265625,-618.3880004882812 C-1073.6939697265625,-618.3880004882812 -418.2179870605469,-1066.116943359375 -709.7639770507812,-544.1010131835938 C-1001.3109741210938,-22.086000442504883 -733.8920288085938,489.8909912109375 -733.8920288085938,489.8909912109375 C-733.8920288085938,489.8909912109375 -542.8800048828125,598.3099975585938 -490.60198974609375,552.1320190429688 C-438.32501220703125,505.9530029296875 -476.5270080566406,-564.177978515625 -476.5270080566406,-564.177978515625 C-476.5270080566406,-564.177978515625 -258.0530090332031,-511.9840087890625 -258.0530090332031,-511.9840087890625 C-258.0530090332031,-511.9840087890625 114.60800170898438,184.71299743652344 -260.10699462890625,562.0239868164062"></path></g></g></g><g mask="url(#__lottie_element_62_1)" style="display: block;"><g clip-path="url(#__lottie_element_66)" transform="matrix(1,0,0,1,0,0)" opacity="1"><g transform="matrix(1.0845099687576294,0,0,1.2162200212478638,973.5638427734375,943.56787109375)" opacity="1" style="display: block;"><g opacity="1" transform="matrix(1,0,0,1,0,0)"><path fill="rgb(67,43,59)" fill-opacity="1" d=" M-160,-100 C-135,-100 -115,-80 -115,-55 C-115,-30 -135,-10 -160,-10 C-185,-10 -205,-30 -205,-55 C-205,-80 -185,-100 -160,-100z"></path></g></g><g transform="matrix(1.0845099687576294,0,0,1.2162200212478638,1391.5638427734375,931.56787109375)" opacity="1" style="display: block;"><g opacity="1" transform="matrix(1,0,0,1,0,0)"><path fill="rgb(67,43,59)" fill-opacity="1" d=" M-160,-100 C-135,-100 -115,-80 -115,-55 C-115,-30 -135,-10 -160,-10 C-185,-10 -205,-30 -205,-55 C-205,-80 -185,-100 -160,-100z"></path></g></g><g clip-path="url(#__lottie_element_70)" transform="matrix(1,0,0,1,0,6)" opacity="1" style="display: block;"><g transform="matrix(0.9995706677436829,0.029299885034561157,-0.029299885034561157,0.9995706677436829,949.9943237304688,925.919189453125)" opacity="1" style="display: block;"><g opacity="1" transform="matrix(1,0,0,1,0,0)"><path fill="rgb(67,43,59)" fill-opacity="1" d=" M-175,100 C-70,240 220,240 325,100 C325,100 200,395 75,235 C-50,395 -175,100 -175,100z"></path></g></g></g></g></g></g></g></g><g clip-path="url(#__lottie_element_4)" transform="matrix(1,0,0,1,92.5,-229.73828125)" opacity="1" style="display: block;"><g clip-path="url(#__lottie_element_8)" transform="matrix(1,0,0,1,0,0)" opacity="1" style="display: block;"><g clip-path="url(#__lottie_element_12)" transform="matrix(1,0,0,1,0,0)" opacity="1" style="display: block;"><g transform="matrix(1,0,0,1,965.9999389648438,1006)" opacity="1" style="display: block;"><g opacity="1" transform="matrix(1,0,0,1,0,0)"><path fill="rgb(168,94,60)" fill-opacity="1" d=" M34,-516 C-220,-636 -380,-416 -380,-416 C-380,-416 -270,-366 -268,-354 C-266,-342 378,-306 378,-306 C378,-306 552.0599975585938,-269.2510070800781 404,-450 C250,-638 35.80799865722656,-515.14599609375 34,-516z"></path></g></g><g transform="matrix(0.9935758113861084,-0.11316853016614914,0.11316853016614914,0.9935758113861084,1005.2265014648438,961.9632568359375)" opacity="1" style="display: block;"><g opacity="1" transform="matrix(1,0,0,1,0,0)"><path fill="rgb(165,150,104)" fill-opacity="1" d=" M278,-686 C56,-612 30,-386 30,-386 C30,-386 62,-386 64,-390 C171.46499633789062,-604.9320068359375 328,-570 328,-570 C328,-570 286.04998779296875,-688.6829833984375 278,-686z"></path></g></g><g transform="matrix(1,0,0,1,960,960)" opacity="1" style="display: block;"><g opacity="1" transform="matrix(1,0,0,1,0,0)"><path fill="rgb(219,154,96)" fill-opacity="1" d=" M41.757999420166016,-413.2080078125 C41.757999420166016,-413.2080078125 -63.722999572753906,-522.6420288085938 -229.76100158691406,-449.0570068359375 C-229.76100158691406,-449.0570068359375 -329.760009765625,-500 -424.1000061035156,-413.2080078125 C-515.0499877929688,-329.5350036621094 -679.6510009765625,155.718994140625 -366.76800537109375,388.2879943847656 C-334.64801025390625,412.1629943847656 -296.10198974609375,426.19000244140625 -256.0870056152344,426.9309997558594 C-250.51499938964844,427.03399658203125 -244.85499572753906,426.8869934082031 -239.19500732421875,426.4150085449219 C-239.19500732421875,426.4150085449219 -167.49600219726562,501.8869934082031 30.617000579833984,481.1319885253906 C30.617000579833984,481.1319885253906 213.63600158691406,522.6420288085938 345.71099853515625,426.4150085449219 C345.71099853515625,426.4150085449219 547.5980224609375,452.8299865722656 617.4089965820312,194.33999633789062 C679.6510009765625,-36.125 612.906982421875,-347.5820007324219 457.29400634765625,-455.20001220703125 C421.552001953125,-479.9179992675781 377.89300537109375,-490.9289855957031 334.8689880371094,-484.8179931640625 C311.63299560546875,-481.5169982910156 288.2980041503906,-473.31500244140625 277.7860107421875,-454.7170104980469 C277.7860107421875,-454.7170104980469 130.25799560546875,-513.2080078125 41.757999420166016,-413.2080078125z"></path></g></g><g mask="url(#__lottie_element_35_1)" style="display: block;"><g transform="matrix(1,0,0,1,1470,960)" opacity="1"><g opacity="1" transform="matrix(0.994700014591217,0,0,0.9961400032043457,0,0)"><path stroke-linecap="butt" stroke-linejoin="miter" fill-opacity="0" stroke-miterlimit="4" stroke="rgb(152,83,54)" stroke-opacity="1" stroke-width="8" d=" M-1031.469970703125,-558.155029296875 C-1361.218994140625,337.302001953125 -916.8629760742188,582.2470092773438 -916.8629760742188,582.2470092773438 C-916.8629760742188,582.2470092773438 -309.531005859375,1052.074951171875 84.447998046875,475.8380126953125 C569.0180053710938,-232.8990020751953 -209.10899353027344,-696.6900024414062 -209.10899353027344,-696.6900024414062 C-209.10899353027344,-696.6900024414062 -1073.6939697265625,-618.3880004882812 -1073.6939697265625,-618.3880004882812 C-1073.6939697265625,-618.3880004882812 -418.2179870605469,-1066.116943359375 -709.7639770507812,-544.1010131835938 C-1001.3109741210938,-22.086000442504883 -733.8920288085938,489.8909912109375 -733.8920288085938,489.8909912109375 C-733.8920288085938,489.8909912109375 -542.8800048828125,598.3099975585938 -490.60198974609375,552.1320190429688 C-438.32501220703125,505.9530029296875 -476.5270080566406,-564.177978515625 -476.5270080566406,-564.177978515625 C-476.5270080566406,-564.177978515625 -258.0530090332031,-511.9840087890625 -258.0530090332031,-511.9840087890625 C-258.0530090332031,-511.9840087890625 114.60800170898438,184.71299743652344 -260.10699462890625,562.0239868164062"></path></g></g></g><g mask="url(#__lottie_element_15_1)" style="display: block;"><g clip-path="url(#__lottie_element_19)" transform="matrix(1,0,0,1,0,0)" opacity="1"><g transform="matrix(1.0845099687576294,0,0,1.2162200212478638,973.5638427734375,943.56787109375)" opacity="1" style="display: block;"><g opacity="1" transform="matrix(1,0,0,1,0,0)"><path fill="rgb(67,43,59)" fill-opacity="1" d=" M-160,-100 C-135,-100 -115,-80 -115,-55 C-115,-30 -135,-10 -160,-10 C-185,-10 -205,-30 -205,-55 C-205,-80 -185,-100 -160,-100z"></path></g></g><g transform="matrix(1.0845099687576294,0,0,1.2162200212478638,1391.5638427734375,931.56787109375)" opacity="1" style="display: block;"><g opacity="1" transform="matrix(1,0,0,1,0,0)"><path fill="rgb(67,43,59)" fill-opacity="1" d=" M-160,-100 C-135,-100 -115,-80 -115,-55 C-115,-30 -135,-10 -160,-10 C-185,-10 -205,-30 -205,-55 C-205,-80 -185,-100 -160,-100z"></path></g></g><g clip-path="url(#__lottie_element_23)" transform="matrix(1,0,0,1,0,6)" opacity="1" style="display: block;"><g transform="matrix(0.9995706677436829,0.029299885034561157,-0.029299885034561157,0.9995706677436829,949.9943237304688,925.919189453125)" opacity="1" style="display: block;"><g opacity="1" transform="matrix(1,0,0,1,0,0)"><path fill="rgb(67,43,59)" fill-opacity="1" d=" M-175,100 C-70,240 220,240 325,100 C325,100 200,395 75,235 C-50,395 -175,100 -175,100z"></path></g></g></g></g></g></g></g></g></g></svg>